<svg width="150" height="60" viewBox="0 0 150 60" fill="none" xmlns="http://www.w3.org/2000/svg">
    <rect width="150" height="60" rx="5" fill="#16161A" fill-opacity="0" />
    <path d="M30 15H50C55.5228 15 60 19.4772 60 25V35C60 40.5228 55.5228 45 50 45H30C24.4772 45 20 40.5228 20 35V25C20 19.4772 24.4772 15 30 15Z" fill="#5D4FFF" />
    <path d="M75 15H120C125.523 15 130 19.4772 130 25V35C130 40.5228 125.523 45 120 45H75C69.4772 45 65 40.5228 65 35V25C65 19.4772 69.4772 15 75 15Z" fill="white" />
    <path d="M85 30H110" stroke="#5D4FFF" stroke-width="4" stroke-linecap="round" />
    <circle cx="40" cy="30" r="10" fill="white" />
</svg> 